# xmcd CD database file
#
# Track frame offsets:
#	183
#	24130
#	45815
#	61990
#	82588
#	109393
#
# Disc length: 1706 seconds
#
# Revision: 0
# Processed by: cddbd v1.5.1PL0 Copyright (c) Steve Scherf et al.
# Submitted via: CDex 1.51
#
DISCID=3406a806
DTITLE=Various Artist - Tropical Storm Sampler 89 
DYEAR=1989
DGENRE=New Age
TTITLE0=Te Cante (I Made A Pass At You) - Rique Pantoja and Chet Baker
TTITLE1=Sax Appeal - Raul Mascarenhas
TTITLE2=Baleia Azul - Victor Biglione
TTITLE3=Vozes - Andre Geraissati
TTITLE4=Lua Branca - Marcos Ariel
TTITLE5=Classical Tropico - Alberto Favero
EXTD=YEAR: 1989
EXTT0=
EXTT1=
EXTT2=
EXTT3=
EXTT4=
EXTT5=
PLAYORDER=
